<svg width="26" height="26" viewBox="0 0 26 26" fill="none" xmlns="http://www.w3.org/2000/svg">
<path d="M6.61621 22.5576H8.94727C9.16211 22.5576 9.32324 22.6221 9.48438 22.7832L11.1387 24.4268C12.4922 25.791 13.749 25.7803 15.1025 24.4268L16.7568 22.7832C16.9287 22.6221 17.0791 22.5576 17.3047 22.5576H19.625C21.5479 22.5576 22.4395 21.6768 22.4395 19.7432V17.4229C22.4395 17.1973 22.5039 17.0469 22.665 16.875L24.3086 15.2207C25.6729 13.8672 25.6621 12.6104 24.3086 11.2568L22.665 9.60254C22.5039 9.44141 22.4395 9.28027 22.4395 9.06543V6.73438C22.4395 4.82227 21.5586 3.91992 19.625 3.91992H17.3047C17.0791 3.91992 16.9287 3.86621 16.7568 3.70508L15.1025 2.06152C13.749 0.697266 12.4922 0.708008 11.1387 2.06152L9.48438 3.70508C9.32324 3.86621 9.16211 3.91992 8.94727 3.91992H6.61621C4.69336 3.91992 3.80176 4.80078 3.80176 6.73438V9.06543C3.80176 9.28027 3.74805 9.44141 3.58691 9.60254L1.94336 11.2568C0.579102 12.6104 0.589844 13.8672 1.94336 15.2207L3.58691 16.875C3.74805 17.0469 3.80176 17.1973 3.80176 17.4229V19.7432C3.80176 21.666 4.69336 22.5576 6.61621 22.5576ZM11.9229 18.4863C11.5576 18.4863 11.2568 18.3467 10.9775 17.9707L8.28125 14.6621C8.12012 14.4473 8.02344 14.2002 8.02344 13.9639C8.02344 13.4697 8.39941 13.0723 8.89355 13.0723C9.19434 13.0723 9.43066 13.1797 9.69922 13.5342L11.8799 16.3486L16.4668 8.97949C16.6709 8.64648 16.9502 8.48535 17.2402 8.48535C17.7021 8.48535 18.1426 8.80762 18.1426 9.30176C18.1426 9.54883 18.0029 9.7959 17.874 10.0107L12.8252 17.9707C12.5996 18.3145 12.2881 18.4863 11.9229 18.4863Z" fill="#5DB075"/>
</svg>
