<svg width="23" height="24" viewBox="0 0 23 24" fill="none" xmlns="http://www.w3.org/2000/svg">
<path d="M5.70215 16.1221C5.6377 20.1826 8.93555 23.2656 14.1025 23.3086L15.6279 23.3193C17.0674 23.3301 18.1309 23.2227 18.7324 23.0615C19.6025 22.8359 20.4512 22.3096 20.4512 21.2568C20.4512 20.8271 20.3438 20.5264 20.1934 20.2793C20.1074 20.1396 20.1182 20.0215 20.2578 19.9678C20.9453 19.6885 21.5254 19.0439 21.5254 18.1523C21.5254 17.6582 21.375 17.207 21.1387 16.8955C21.0098 16.7344 21.0312 16.5947 21.2246 16.4658C21.7295 16.1758 22.0732 15.5527 22.0732 14.8223C22.0732 14.3174 21.9121 13.7588 21.6113 13.4902C21.4395 13.3291 21.4717 13.2217 21.6543 13.0605C22.0088 12.7705 22.2236 12.2549 22.2236 11.6318C22.2236 10.5576 21.3857 9.6875 20.29 9.6875H16.3691C15.3701 9.6875 14.7148 9.17188 14.7148 8.35547C14.7148 6.85156 16.5732 4.12305 16.5732 2.15723C16.5732 1.12598 15.9072 0.513672 15.0371 0.513672C14.2422 0.513672 13.8447 1.06152 13.415 1.89941C11.7715 5.12207 9.55859 7.73242 7.87207 9.9668C6.44336 11.8682 5.74512 13.4902 5.70215 16.1221ZM0.288086 16.1973C0.288086 19.4951 2.35059 22.2559 5.10059 22.2559H7.06641C5.06836 20.8057 4.16602 18.6035 4.20898 16.0898C4.25195 13.2969 5.32617 11.3096 6.30371 10.0957H4.69238C2.2002 10.0957 0.288086 12.7812 0.288086 16.1973Z" fill="#000000" fill-opacity="1.0"/>
</svg>
