<svg width="28" height="29" viewBox="0 0 28 29" fill="none" xmlns="http://www.w3.org/2000/svg">
<path d="M1.78125 15.9912H12.5225V26.7324C12.5225 27.5293 13.1865 28.21 14 28.21C14.8135 28.21 15.4941 27.5293 15.4941 26.7324V15.9912H26.2188C27.0156 15.9912 27.6963 15.3271 27.6963 14.5137C27.6963 13.7002 27.0156 13.0195 26.2188 13.0195H15.4941V2.29492C15.4941 1.49805 14.8135 0.817383 14 0.817383C13.1865 0.817383 12.5225 1.49805 12.5225 2.29492V13.0195H1.78125C0.984375 13.0195 0.303711 13.7002 0.303711 14.5137C0.303711 15.3271 0.984375 15.9912 1.78125 15.9912Z" fill="white"/>
</svg>
